<svg width="335" height="118" viewBox="0 0 335 118" fill="none" xmlns="http://www.w3.org/2000/svg">
<path d="M128.519 75.0371V44.6416C128.519 43.9743 128.746 43.4128 129.202 42.957C129.658 42.5013 130.203 42.2734 130.838 42.2734H135.428C136.062 42.2734 136.6 42.5013 137.039 42.957C137.495 43.4128 137.723 43.9743 137.723 44.6416V70.374H158.987C159.622 70.374 160.159 70.6019 160.599 71.0576C161.054 71.5133 161.282 72.0586 161.282 72.6934V74.9883C161.282 75.623 161.054 76.1683 160.599 76.624C160.159 77.0635 159.622 77.2832 158.987 77.2832H130.838C130.203 77.2832 129.658 77.0716 129.202 76.6484C128.746 76.209 128.519 75.6719 128.519 75.0371ZM165.286 75.0371V44.6416C165.286 43.9743 165.514 43.4128 165.97 42.957C166.425 42.5013 166.971 42.2734 167.605 42.2734H172.195C172.83 42.2734 173.367 42.5013 173.807 42.957C174.262 43.4128 174.49 43.9743 174.49 44.6416V70.374H195.755C196.39 70.374 196.927 70.6019 197.366 71.0576C197.822 71.5133 198.05 72.0586 198.05 72.6934V74.9883C198.05 75.623 197.822 76.1683 197.366 76.624C196.927 77.0635 196.39 77.2832 195.755 77.2832H167.605C166.971 77.2832 166.425 77.0716 165.97 76.6484C165.514 76.209 165.286 75.6719 165.286 75.0371ZM200.833 63.4404V44.5928C200.833 43.958 201.053 43.4128 201.492 42.957C201.948 42.5013 202.509 42.2734 203.177 42.2734H207.742C208.361 42.2734 208.898 42.5013 209.354 42.957C209.809 43.4128 210.037 43.958 210.037 44.5928V63.4893C210.037 65.8818 210.558 67.6641 211.6 68.8359C212.658 70.0078 214.285 70.5938 216.482 70.5938H220.389C222.586 70.5938 224.205 70.0078 225.247 68.8359C226.305 67.6641 226.834 65.8818 226.834 63.4893V44.5928C226.834 43.958 227.054 43.4128 227.493 42.957C227.949 42.5013 228.494 42.2734 229.129 42.2734H233.67C234.337 42.2734 234.899 42.5013 235.354 42.957C235.81 43.4128 236.038 43.958 236.038 44.5928V63.4404C236.038 67.9001 234.728 71.3587 232.107 73.8164C229.487 76.2578 225.662 77.4785 220.633 77.4785H216.238C211.193 77.4785 207.36 76.2578 204.739 73.8164C202.135 71.3587 200.833 67.9001 200.833 63.4404ZM242.532 74.9395V44.6416C242.532 43.9743 242.752 43.4128 243.191 42.957C243.631 42.5013 244.168 42.2734 244.803 42.2734H254.739C255.374 42.2734 255.976 42.5013 256.546 42.957C257.116 43.4128 257.498 43.958 257.693 44.5928L264.896 65.4424L272.098 44.5928C272.293 43.958 272.675 43.4128 273.245 42.957C273.815 42.5013 274.417 42.2734 275.052 42.2734H284.988C285.623 42.2734 286.152 42.5013 286.575 42.957C287.015 43.4128 287.234 43.9743 287.234 44.6416V74.9395C287.234 75.6068 287.007 76.1683 286.551 76.624C286.111 77.0635 285.574 77.2832 284.939 77.2832H280.545C279.91 77.2832 279.365 77.0635 278.909 76.624C278.47 76.1683 278.25 75.6068 278.25 74.9395V51.0869L269.632 75.0859C269.404 75.6882 269.005 76.209 268.436 76.6484C267.866 77.0716 267.264 77.2832 266.629 77.2832H263.138C262.503 77.2832 261.901 77.0716 261.331 76.6484C260.778 76.209 260.379 75.6882 260.135 75.0859L251.541 51.0869V74.9395C251.541 75.6068 251.313 76.1683 250.857 76.624C250.418 77.0635 249.881 77.2832 249.246 77.2832H244.852C244.217 77.2832 243.672 77.0635 243.216 76.624C242.76 76.1683 242.532 75.6068 242.532 74.9395ZM326.541 73.6699C323.221 76.5833 318.338 78.04 311.893 78.04C305.464 78.04 300.581 76.5833 297.244 73.6699C293.908 70.7402 292.239 66.1097 292.239 59.7783C292.239 53.4469 293.908 48.8245 297.244 45.9111C300.581 42.9977 305.464 41.541 311.893 41.541C318.338 41.541 323.221 42.9977 326.541 45.9111C329.878 48.8245 331.546 53.4469 331.546 59.7783C331.546 66.1097 329.878 70.7402 326.541 73.6699ZM319.876 51.0625C318.232 49.1094 315.571 48.1328 311.893 48.1328C308.23 48.1328 305.569 49.1094 303.909 51.0625C302.265 53.0156 301.443 55.929 301.443 59.8027C301.443 63.6602 302.265 66.5654 303.909 68.5186C305.569 70.4554 308.23 71.4238 311.893 71.4238C315.571 71.4238 318.232 70.4554 319.876 68.5186C321.52 66.5654 322.342 63.6602 322.342 59.8027C322.342 55.929 321.52 53.0156 319.876 51.0625Z" fill="#3A4659"/>
<path d="M306.144 31H303.168L309.936 12.976H312.684L319.356 31H316.296L311.844 17.596L311.34 15.88L310.812 17.596L306.144 31ZM306.528 26.62L307.008 24.544H315.192L315.696 26.62H306.528ZM321.935 31V13.168H324.767V31H321.935Z" fill="url(#paint0_linear_275_5594)"/>
<path d="M29.9665 29.7842C36.4285 13.3349 55.0018 5.2385 71.4512 11.7005L41.4846 87.9817C35.0226 104.431 16.4493 112.527 -8.35903e-05 106.065L29.9665 29.7842Z" fill="url(#paint1_linear_275_5594)"/>
<path d="M38.9795 108.035C38.9795 93.8564 50.4737 82.3622 64.6525 82.3622H106.721C106.721 96.541 95.2265 108.035 81.0477 108.035H38.9795Z" fill="#FD8CB9"/>
<defs>
<linearGradient id="paint0_linear_275_5594" x1="315.5" y1="10" x2="315.5" y2="34" gradientUnits="userSpaceOnUse">
<stop stop-color="#622AC2"/>
<stop offset="1" stop-color="#FD8CB9"/>
</linearGradient>
<linearGradient id="paint1_linear_275_5594" x1="40.5" y1="44" x2="14.892" y2="111.916" gradientUnits="userSpaceOnUse">
<stop stop-color="#622AC2"/>
<stop offset="1" stop-color="#FD8CB9"/>
</linearGradient>
</defs>
</svg>
